<?xml version="1.0" standalone="no"?>
<!DOCTYPE svg PUBLIC "-//W3C//DTD SVG 20010904//EN"
 "http://www.w3.org/TR/2001/REC-SVG-20010904/DTD/svg10.dtd">
<svg version="1.0" xmlns="http://www.w3.org/2000/svg"
 width="500.000000pt" height="500.000000pt" viewBox="0 0 500.000000 500.000000"
 preserveAspectRatio="xMidYMid meet">

<g transform="translate(0.000000,500.000000) scale(0.100000,-0.100000)"
fill="#000000" stroke="none">
<path d="M1990 3674 c-105 -28 -197 -81 -282 -162 -107 -102 -168 -185 -233
-319 l-55 -112 -97 -46 c-197 -93 -278 -157 -391 -310 -91 -123 -134 -234
-182 -470 -20 -98 -41 -169 -60 -206 -176 -341 61 -739 440 -739 137 0 250 48
351 149 53 53 77 88 117 171 54 110 111 292 133 422 l13 76 135 64 c75 34 161
82 192 104 83 61 162 169 241 329 56 113 77 146 111 173 23 18 50 42 59 53 18
21 18 21 80 -36 54 -50 71 -76 129 -194 72 -146 147 -248 230 -317 28 -23 115
-72 194 -109 l143 -67 16 -87 c35 -194 106 -393 180 -503 178 -269 549 -306
776 -78 148 149 184 386 86 577 -25 51 -43 116 -87 318 -45 209 -118 344 -269
495 -78 79 -98 92 -235 162 l-150 77 -39 86 c-51 112 -97 183 -179 274 -171
190 -371 271 -569 230 -80 -17 -170 -64 -233 -120 l-55 -51 -54 50 c-120 113
-297 159 -456 116z"/>
<path d="M1866 2080 c-58 -18 -106 -83 -106 -142 0 -42 27 -96 60 -120 14 -10
111 -47 215 -83 201 -69 227 -73 287 -37 34 20 68 81 68 121 0 40 -21 91 -48
115 -23 20 -358 141 -414 150 -18 3 -46 1 -62 -4z"/>
<path d="M2880 2023 c-184 -64 -219 -83 -246 -135 -47 -90 28 -208 132 -208
53 0 386 113 431 146 57 43 69 140 24 202 -25 36 -78 62 -123 61 -18 -1 -116
-30 -218 -66z"/>
</g>
</svg>
